# xmcd
#
# Track frame offsets: 
#        150
#        14882
#        26327
#        39677
#        52549
#        66702
#        77272
#        90887
#        104064
#        117849
#        130744
#        142907
#        157502
#        169542
#        183467
#        194927
#        208157
#        220702
#        233994
#        248679
#
# Disc length: 3482 seconds
#
# Revision: 0
# Processed by: cddbd v1.5PL3 Copyright (c) Steve Scherf et al.
# Submitted via: ExactAudioCopy v0.95a4
#
DISCID=0c0d9814
DTITLE=Calvin Vollrath - Friendship
DYEAR=2002
DGENRE=Country
TTITLE0=The Cullivoe Band
TTITLE1=The Crowded Room
TTITLE2=Les Freres Chevrafils
TTITLE3=Penman Swing
TTITLE4=Gaetan
TTITLE5=The Frontier Fiddlers Jig
TTITLE6=Birch Hills
TTITLE7=Vic Garbutt's Classic Country Waltz
TTITLE8=Last Balls in Pine Falls
TTITLE9=Gordon and Sandra's Wedding Waltz
TTITLE10=Laverne Hemmel Special
TTITLE11=Bethany
TTITLE12=37,000 Pieds
TTITLE13=Friendship
TTITLE14=Bambi and Thumper
TTITLE15=The Morin Farm Jig
TTITLE16=Don's Old Waltz
TTITLE17=The Reel George Linsey
TTITLE18=Who Let the Skunk Out?
TTITLE19=A Waltz for Vi
EXTD=
EXTT0=
EXTT1=
EXTT2=
EXTT3=
EXTT4=
EXTT5=
EXTT6=
EXTT7=
EXTT8=
EXTT9=
EXTT10=
EXTT11=
EXTT12=
EXTT13=
EXTT14=
EXTT15=
EXTT16=
EXTT17=
EXTT18=
EXTT19=
PLAYORDER=
